<svg xmlns="http://www.w3.org/2000/svg" xmlns:xlink="http://www.w3.org/1999/xlink" contentStyleType="text/css" data-diagram-type="SEQUENCE" height="708px" preserveAspectRatio="none" style="width:462px;height:708px;background:#FFFFFF;" version="1.1" viewBox="0 0 462 708" width="462px" zoomAndPan="magnify"><defs/><g><g><title>JuegoApp</title><rect fill="#FFFFFF" height="102.5625" style="stroke:#181818;stroke-width:1;" width="10" x="84.459" y="122.4297"/></g><g><title>JuegoApp</title><rect fill="#FFFFFF" height="363.5938" style="stroke:#181818;stroke-width:1;" width="10" x="84.459" y="254.125"/></g><g><title>Juego</title><rect fill="#FFFFFF" height="73.4297" style="stroke:#181818;stroke-width:1;" width="10" x="198.1812" y="151.5625"/></g><g><title>Juego</title><rect fill="#FFFFFF" height="29.1328" style="stroke:#181818;stroke-width:1;" width="10" x="198.1812" y="336.5234"/></g><g><title>Juego</title><rect fill="#FFFFFF" height="29.1328" style="stroke:#181818;stroke-width:1;" width="10" x="198.1812" y="482.1875"/></g><g><title>Usuario</title><rect fill="#FFFFFF" height="29.1328" style="stroke:#181818;stroke-width:1;" width="10" x="411.7119" y="423.9219"/></g><rect fill="none" height="312.4609" style="stroke:#000000;stroke-width:1.5;" width="417.064" x="39.25" y="298.2578"/><rect fill="none" height="48.2656" style="stroke:#000000;stroke-width:1.5;" width="227.0347" x="49.25" y="555.4531"/><rect fill="none" height="17.1328" style="stroke:#000000;stroke-width:1.5;" width="91.9517" x="59.25" y="579.5859"/><g><title>JuegoApp</title><rect fill="#000000" fill-opacity="0.00000" height="546.4219" width="8" x="85.459" y="81.2969"/><line style="stroke:#181818;stroke-width:0.5;stroke-dasharray:5.0,5.0;" x1="89.25" x2="89.25" y1="81.2969" y2="627.7188"/></g><g><title>Juego</title><rect fill="#000000" fill-opacity="0.00000" height="476.6406" width="8" x="199.1812" y="151.0781"/><line style="stroke:#181818;stroke-width:0.5;stroke-dasharray:5.0,5.0;" x1="202.6475" x2="202.6475" y1="151.0781" y2="627.7188"/></g><g><title>Usuario</title><rect fill="#000000" fill-opacity="0.00000" height="546.4219" width="8" x="412.7119" y="81.2969"/><line style="stroke:#181818;stroke-width:0.5;stroke-dasharray:5.0,5.0;" x1="416.1099" x2="416.1099" y1="81.2969" y2="627.7188"/></g><g class="participant participant-head" data-participant="JuegoApp"><rect fill="#E2E2F0" height="30.2969" rx="2.5" ry="2.5" style="stroke:#181818;stroke-width:0.5;" width="80.418" x="49.25" y="50"/><text fill="#000000" font-family="sans-serif" font-size="14" lengthAdjust="spacing" textLength="66.418" x="56.25" y="69.9951">JuegoApp</text></g><g class="participant participant-tail" data-participant="JuegoApp"><rect fill="#E2E2F0" height="30.2969" rx="2.5" ry="2.5" style="stroke:#181818;stroke-width:0.5;" width="80.418" x="49.25" y="626.7188"/><text fill="#000000" font-family="sans-serif" font-size="14" lengthAdjust="spacing" textLength="66.418" x="56.25" y="646.7139">JuegoApp</text></g><g class="participant participant-tail" data-participant="Juego"><rect fill="#E2E2F0" height="30.2969" rx="2.5" ry="2.5" style="stroke:#181818;stroke-width:0.5;" width="53.0674" x="176.6475" y="626.7188"/><text fill="#000000" font-family="sans-serif" font-size="14" lengthAdjust="spacing" textLength="39.0674" x="183.6475" y="646.7139">Juego</text></g><g class="participant participant-head" data-participant="Usuario"><text fill="#000000" font-family="sans-serif" font-size="14" lengthAdjust="spacing" textLength="53.2041" x="387.1099" y="77.9951">Usuario</text><ellipse cx="416.7119" cy="13.5" fill="#E2E2F0" rx="8" ry="8" style="stroke:#181818;stroke-width:0.5;"/><path d="M416.7119,21.5 L416.7119,48.5 M403.7119,29.5 L429.7119,29.5 M416.7119,48.5 L403.7119,63.5 M416.7119,48.5 L429.7119,63.5" fill="none" style="stroke:#181818;stroke-width:0.5;"/></g><g class="participant participant-tail" data-participant="Usuario"><text fill="#000000" font-family="sans-serif" font-size="14" lengthAdjust="spacing" textLength="53.2041" x="387.1099" y="639.7139">Usuario</text><ellipse cx="416.7119" cy="651.5156" fill="#E2E2F0" rx="8" ry="8" style="stroke:#181818;stroke-width:0.5;"/><path d="M416.7119,659.5156 L416.7119,686.5156 M403.7119,667.5156 L429.7119,667.5156 M416.7119,686.5156 L403.7119,701.5156 M416.7119,686.5156 L429.7119,701.5156" fill="none" style="stroke:#181818;stroke-width:0.5;"/></g><g><title>JuegoApp</title><rect fill="#FFFFFF" height="102.5625" style="stroke:#181818;stroke-width:1;" width="10" x="84.459" y="122.4297"/></g><g><title>JuegoApp</title><rect fill="#FFFFFF" height="363.5938" style="stroke:#181818;stroke-width:1;" width="10" x="84.459" y="254.125"/></g><g><title>Juego</title><rect fill="#FFFFFF" height="73.4297" style="stroke:#181818;stroke-width:1;" width="10" x="198.1812" y="151.5625"/></g><g><title>Juego</title><rect fill="#FFFFFF" height="29.1328" style="stroke:#181818;stroke-width:1;" width="10" x="198.1812" y="336.5234"/></g><g><title>Juego</title><rect fill="#FFFFFF" height="29.1328" style="stroke:#181818;stroke-width:1;" width="10" x="198.1812" y="482.1875"/></g><g><title>Usuario</title><rect fill="#FFFFFF" height="29.1328" style="stroke:#181818;stroke-width:1;" width="10" x="411.7119" y="423.9219"/></g><g class="message" data-participant-1="JuegoApp" data-participant-2="JuegoApp"><ellipse cx="7.5" cy="111.6797" fill="#000000" rx="4" ry="4" style="stroke:#181818;stroke-width:1.5;"/><polygon fill="#181818" points="77.459,108.4297,87.459,112.4297,77.459,116.4297,81.459,112.4297" style="stroke:#181818;stroke-width:1;"/><line style="stroke:#181818;stroke-width:1;" x1="12" x2="83.459" y1="112.4297" y2="112.4297"/><text fill="#000000" font-family="sans-serif" font-size="13" lengthAdjust="spacing" textLength="57.459" x="15" y="107.3638">&#171;create&#187;</text></g><g class="message" data-participant-1="JuegoApp" data-participant-2="Juego"><polygon fill="#181818" points="164.6475,137.5625,174.6475,141.5625,164.6475,145.5625,168.6475,141.5625" style="stroke:#181818;stroke-width:1;"/><line style="stroke:#181818;stroke-width:1;" x1="94.459" x2="170.6475" y1="141.5625" y2="141.5625"/><text fill="#000000" font-family="sans-serif" font-size="13" lengthAdjust="spacing" textLength="57.459" x="101.459" y="136.4966">&#171;create&#187;</text></g><rect fill="#E2E2F0" height="30.2969" rx="2.5" ry="2.5" style="stroke:#181818;stroke-width:0.5;" width="53.0674" x="176.6475" y="120.4297"/><text fill="#000000" font-family="sans-serif" font-size="14" lengthAdjust="spacing" textLength="39.0674" x="183.6475" y="140.4248">Juego</text><g class="message" data-participant-1="Juego" data-participant-2="Juego"><line style="stroke:#181818;stroke-width:1;" x1="208.1812" x2="250.1812" y1="182.8594" y2="182.8594"/><line style="stroke:#181818;stroke-width:1;" x1="250.1812" x2="250.1812" y1="182.8594" y2="195.8594"/><line style="stroke:#181818;stroke-width:1;" x1="209.1812" x2="250.1812" y1="195.8594" y2="195.8594"/><polygon fill="#181818" points="219.1812,191.8594,209.1812,195.8594,219.1812,199.8594,215.1812,195.8594" style="stroke:#181818;stroke-width:1;"/><text fill="#000000" font-family="sans-serif" font-size="13" lengthAdjust="spacing" textLength="179.5308" x="215.1812" y="177.7935">determinar n&#250;mero secreto</text></g><g class="message" data-participant-1="Juego" data-participant-2="JuegoApp"><polygon fill="#181818" points="100.459,220.9922,90.459,224.9922,100.459,228.9922,96.459,224.9922" style="stroke:#181818;stroke-width:1;"/><line style="stroke:#181818;stroke-width:1;stroke-dasharray:2.0,2.0;" x1="94.459" x2="202.1812" y1="224.9922" y2="224.9922"/><text fill="#000000" font-family="sans-serif" font-size="13" lengthAdjust="spacing" textLength="36.0547" x="106.459" y="219.9263">juego</text></g><g class="message" data-participant-1="JuegoApp" data-participant-2="JuegoApp"><polygon fill="#181818" points="72.459,250.125,82.459,254.125,72.459,258.125,76.459,254.125" style="stroke:#181818;stroke-width:1;"/><line style="stroke:#181818;stroke-width:1;" x1="0" x2="78.459" y1="254.125" y2="254.125"/><text fill="#000000" font-family="sans-serif" font-size="13" lengthAdjust="spacing" textLength="43.5576" x="7" y="249.0591">jugar()</text></g><g class="message" data-participant-1="JuegoApp" data-participant-2="Usuario"><polygon fill="#181818" points="404.7119,279.2578,414.7119,283.2578,404.7119,287.2578,408.7119,283.2578" style="stroke:#181818;stroke-width:1;"/><line style="stroke:#181818;stroke-width:1;" x1="94.459" x2="410.7119" y1="283.2578" y2="283.2578"/><text fill="#000000" font-family="sans-serif" font-size="13" lengthAdjust="spacing" textLength="151.0107" x="101.459" y="278.1919">Mostrar mensaje inicial</text></g><path d="M39.25,298.2578 L115.874,298.2578 L115.874,305.3906 L105.874,315.3906 L39.25,315.3906 L39.25,298.2578" fill="#EEEEEE" style="stroke:#000000;stroke-width:1.5;"/><rect fill="none" height="312.4609" style="stroke:#000000;stroke-width:1.5;" width="417.064" x="39.25" y="298.2578"/><text fill="#000000" font-family="sans-serif" font-size="13" font-weight="bold" lengthAdjust="spacing" textLength="31.624" x="54.25" y="311.3247">loop</text><text fill="#000000" font-family="sans-serif" font-size="11" font-weight="bold" lengthAdjust="spacing" textLength="214.7471" x="130.874" y="310.4683">[mientras juego.getIntentos() &gt; 0]</text><g class="message" data-participant-1="JuegoApp" data-participant-2="Juego"><polygon fill="#181818" points="186.1812,332.5234,196.1812,336.5234,186.1812,340.5234,190.1812,336.5234" style="stroke:#181818;stroke-width:1;"/><line style="stroke:#181818;stroke-width:1;" x1="94.459" x2="192.1812" y1="336.5234" y2="336.5234"/><text fill="#000000" font-family="sans-serif" font-size="13" lengthAdjust="spacing" textLength="84.7222" x="101.459" y="331.4575">getIntentos()</text></g><g class="message" data-participant-1="Juego" data-participant-2="JuegoApp"><polygon fill="#181818" points="105.459,361.6563,95.459,365.6563,105.459,369.6563,101.459,365.6563" style="stroke:#181818;stroke-width:1;"/><line style="stroke:#181818;stroke-width:1;stroke-dasharray:2.0,2.0;" x1="99.459" x2="202.1812" y1="365.6563" y2="365.6563"/><text fill="#000000" font-family="sans-serif" font-size="13" lengthAdjust="spacing" textLength="53.0093" x="111.459" y="360.5903">intentos</text></g><g class="message" data-participant-1="JuegoApp" data-participant-2="Usuario"><polygon fill="#181818" points="404.7119,390.7891,414.7119,394.7891,404.7119,398.7891,408.7119,394.7891" style="stroke:#181818;stroke-width:1;"/><line style="stroke:#181818;stroke-width:1;" x1="94.459" x2="410.7119" y1="394.7891" y2="394.7891"/><text fill="#000000" font-family="sans-serif" font-size="13" lengthAdjust="spacing" textLength="172.2563" x="101.459" y="389.7231">Mostrar intentos restantes</text></g><g class="message" data-participant-1="JuegoApp" data-participant-2="Usuario"><polygon fill="#181818" points="399.7119,419.9219,409.7119,423.9219,399.7119,427.9219,403.7119,423.9219" style="stroke:#181818;stroke-width:1;"/><line style="stroke:#181818;stroke-width:1;" x1="94.459" x2="405.7119" y1="423.9219" y2="423.9219"/><text fill="#000000" font-family="sans-serif" font-size="13" lengthAdjust="spacing" textLength="107.1675" x="101.459" y="418.856">Solicitar n&#250;mero</text></g><g class="message" data-participant-1="Usuario" data-participant-2="JuegoApp"><polygon fill="#181818" points="105.459,449.0547,95.459,453.0547,105.459,457.0547,101.459,453.0547" style="stroke:#181818;stroke-width:1;"/><line style="stroke:#181818;stroke-width:1;stroke-dasharray:2.0,2.0;" x1="99.459" x2="415.7119" y1="453.0547" y2="453.0547"/><text fill="#000000" font-family="sans-serif" font-size="13" lengthAdjust="spacing" textLength="8.2393" x="111.459" y="447.9888">n</text></g><g class="message" data-participant-1="JuegoApp" data-participant-2="Juego"><polygon fill="#181818" points="186.1812,478.1875,196.1812,482.1875,186.1812,486.1875,190.1812,482.1875" style="stroke:#181818;stroke-width:1;"/><line style="stroke:#181818;stroke-width:1;" x1="94.459" x2="192.1812" y1="482.1875" y2="482.1875"/><text fill="#000000" font-family="sans-serif" font-size="13" lengthAdjust="spacing" textLength="69.9766" x="101.459" y="477.1216">intentar(n)</text></g><g class="message" data-participant-1="Juego" data-participant-2="JuegoApp"><polygon fill="#181818" points="105.459,507.3203,95.459,511.3203,105.459,515.3203,101.459,511.3203" style="stroke:#181818;stroke-width:1;"/><line style="stroke:#181818;stroke-width:1;stroke-dasharray:2.0,2.0;" x1="99.459" x2="202.1812" y1="511.3203" y2="511.3203"/><text fill="#000000" font-family="sans-serif" font-size="13" lengthAdjust="spacing" textLength="61.2358" x="111.459" y="506.2544">resultado</text></g><g class="message" data-participant-1="JuegoApp" data-participant-2="Usuario"><polygon fill="#181818" points="404.7119,536.4531,414.7119,540.4531,404.7119,544.4531,408.7119,540.4531" style="stroke:#181818;stroke-width:1;"/><line style="stroke:#181818;stroke-width:1;" x1="94.459" x2="410.7119" y1="540.4531" y2="540.4531"/><text fill="#000000" font-family="sans-serif" font-size="13" lengthAdjust="spacing" textLength="115.064" x="101.459" y="535.3872">Mostrar resultado</text></g><path d="M49.25,555.4531 L113.6929,555.4531 L113.6929,562.5859 L103.6929,572.5859 L49.25,572.5859 L49.25,555.4531" fill="#EEEEEE" style="stroke:#000000;stroke-width:1.5;"/><rect fill="none" height="48.2656" style="stroke:#000000;stroke-width:1.5;" width="227.0347" x="49.25" y="555.4531"/><text fill="#000000" font-family="sans-serif" font-size="13" font-weight="bold" lengthAdjust="spacing" textLength="19.4429" x="64.25" y="568.52">alt</text><text fill="#000000" font-family="sans-serif" font-size="11" font-weight="bold" lengthAdjust="spacing" textLength="142.5918" x="128.6929" y="567.6636">[resultado es correcto]</text><path d="M59.25,579.5859 L146.2017,579.5859 L146.2017,586.7188 L136.2017,596.7188 L59.25,596.7188 L59.25,579.5859" fill="#EEEEEE" style="stroke:#000000;stroke-width:1.5;"/><rect fill="none" height="17.1328" style="stroke:#000000;stroke-width:1.5;" width="91.9517" x="59.25" y="579.5859"/><text fill="#000000" font-family="sans-serif" font-size="13" font-weight="bold" lengthAdjust="spacing" textLength="41.9517" x="74.25" y="592.6528">break</text><!--SRC=[dLEnJiCm4Dtz5JUs0uWPLP4OGM92dJgPv1Iv93xhVE7ZMFanBd7ZD6wf196YoEVtpkyzNu9bSRKBrWky3DZIKmWcb4LZQo66VHmiEpAcPhI22-50TrLUmIFiTWbHLIFJVQx0AxR9hBd3BNf2dqCR5EJUUSlWlxzwP8A8ofQCNIixJcqQBFgMXKcdEPJSrl9cUytIkOjJIafufIYiodhqqHuHdDTKRMTCHnIWT-XrEoPDzotAinSjKTnieO870_fSYsU5d525cqmitRiJRK9SX52UTsbavWDZ59qEJ9rkCD-eKy-oNCzQxpnHOt4c5PfzAJPFuM_v99LwLVvlwQYfeHFRq7_ZMHgaSpjPIe0HQc96_PEctV5vrp7_o2lqZPc_utjjAdy0]--></g></svg>